<?xml version="1.0" encoding="utf-8"?>
<!-- Generator: Adobe Illustrator 15.0.0, SVG Export Plug-In . SVG Version: 6.00 Build 0)  -->
<!DOCTYPE svg PUBLIC "-//W3C//DTD SVG 1.1//EN" "http://www.w3.org/Graphics/SVG/1.1/DTD/svg11.dtd">
<svg version="1.1" id="Layer_1" xmlns:sketch="http://www.bohemiancoding.com/sketch/ns"
	 xmlns="http://www.w3.org/2000/svg" xmlns:xlink="http://www.w3.org/1999/xlink" x="0px" y="0px" width="32px" height="32px"
	 viewBox="0 0 32 32" enable-background="new 0 0 32 32" xml:space="preserve">
<title></title>
<desc></desc>
<g id="Page-1">
	<g id="icon-39-stars">
		<path id="stars" fill="#157EFB" d="M7.285,9.238L5,10l2.285,0.762L8.5,14l1.215-3.238L12,10L9.715,9.238L8.5,6L7.285,9.238
			L7.285,9.238z M9.285,21.238L9.285,21.238L7,22l2.285,0.762L10.5,26l1.215-3.238L14,22l-2.285-0.762L10.5,18L9.285,21.238
			L9.285,21.238z M16.54,13.486L16.54,13.486L12,15l4.54,1.514L18.5,22l1.959-5.486L25,15l-4.541-1.514L18.5,8L16.54,13.486
			L16.54,13.486z"/>
	</g>
</g>
</svg>
